<svg width="12" height="12" viewBox="0 0 12 12" fill="none" xmlns="http://www.w3.org/2000/svg">
<path d="M2.23684 10.9662L9.33311 3.86996L9.41436 10.1517C9.42085 10.6537 9.8381 11.071 10.3401 11.0775C10.8421 11.084 11.2424 10.6837 11.2359 10.1817L11.1262 1.69877C11.1248 1.57956 11.0998 1.46119 11.0529 1.35044C11.0059 1.2397 10.9377 1.13874 10.8523 1.05336C10.767 0.967972 10.666 0.899835 10.5553 0.852847C10.4445 0.805859 10.3261 0.780942 10.2069 0.779522L1.72383 0.656936C1.60465 0.655395 1.48695 0.677342 1.37743 0.721524C1.26792 0.765707 1.16874 0.83126 1.08556 0.91444C1.00238 0.99762 0.936828 1.0968 0.892645 1.20631C0.848463 1.31583 0.826516 1.43353 0.828057 1.55271C0.829598 1.67188 0.854598 1.79019 0.901628 1.90089C0.948659 2.01158 1.0168 2.11249 1.10216 2.19785C1.18752 2.28321 1.28843 2.35135 1.39912 2.39838C1.50981 2.44541 1.62813 2.47041 1.7473 2.47195L8.02922 2.56607L0.932943 9.66235C0.583529 10.0118 0.591021 10.591 0.949592 10.9496C1.30816 11.3082 1.88742 11.3157 2.23684 10.9662Z" fill="#7A7675"/>
</svg>
